<svg width="135" height="26" viewBox="0 0 135 26" fill="none" xmlns="http://www.w3.org/2000/svg"><path d="M15.429 19.282h4.198V.594H15.43z" fill="#6c6c93"/><path fill-rule="evenodd" clip-rule="evenodd" d="M.733.594h5.599c3.497 0 4.547 0 5.946 1.729.7.692 1.051 2.077 1.051 3.115 0 1.384-.7 2.423-2.099 3.461 2.891.954 2.833 3.367 2.804 4.559q-.005.159-.005.286c0 1.385-.35 2.77-1.75 3.808-1.749 1.384-2.45 1.73-5.597 1.73H.733zm4.899 14.535h1.75c.699 0 2.447 0 2.099-1.73.348-1.731-1.05-1.731-2.1-1.731h-1.75zm0-7.614h1.4c.7 0 1.749 0 1.749-1.385 0-1.384-1.05-1.384-1.75-1.384h-1.4zm30.434 4.848c0-3.806-2.45-7.613-7.698-7.613-4.898 0-7.346 3.807-7.697 7.613.351 3.116 2.799 7.27 7.698 7.27 5.248 0 7.697-4.154 7.697-7.27m-4.199 0c0 1.73-1.4 3.461-3.498 3.461-1.75 0-3.15-1.73-3.15-3.46 0-2.422 1.4-3.807 3.15-3.807 2.099 0 3.498 1.385 3.498 3.806M44.814 4.75c5.248 0 7.697 3.807 7.697 7.613 0 3.116-2.449 7.27-7.697 7.27-5.247 0-7.698-4.154-7.698-7.27 0-3.806 2.45-7.613 7.698-7.613m0 11.074c1.75 0 3.499-1.73 3.499-3.46 0-2.422-1.75-3.807-3.5-3.807s-3.498 1.385-3.498 3.806c0 1.73 1.75 3.461 3.499 3.461" fill="#6c6c93"/><path d="M57.41 5.096h-3.848v14.19h4.198v-7.615c0-.691 0-3.114 2.448-3.114 2.1 0 2.1 2.077 2.1 3.114v7.615h4.198v-7.615c0-1.037 0-3.114 2.45-3.114 2.099 0 2.099 2.077 2.099 3.114v7.615h4.198v-7.615c0-3.114 0-4.152-1.4-5.537-1.049-1.384-2.798-1.384-3.848-1.384-2.1 0-3.499 1.038-4.548 2.423-1.05-2.077-2.798-2.423-4.198-2.423-2.45 0-3.499 1.384-3.849 2.077z" fill="#6c6c93"/><path fill-rule="evenodd" clip-rule="evenodd" d="M77.007.594h4.549v5.884c1.399-1.731 3.499-1.731 3.848-1.731 3.149 0 7.348 2.075 6.998 7.267.35 5.192-3.5 7.616-6.998 7.616a5.92 5.92 0 0 1-4.197-1.732v1.384h-4.2zm7.698 15.227c2.099 0 3.498-1.73 3.498-3.46 0-2.078-1.4-3.807-3.498-3.807s-3.498 1.73-3.498 3.806c0 1.73 1.4 3.461 3.498 3.461m20.636 2.764c1.4-1.037 2.449-2.075 3.149-3.806h-4.549c-.349.692-1.049 1.385-2.449 1.385-1.748 0-3.149-1.039-3.497-2.77h10.845v-1.037c0-4.154-3.149-7.615-7.698-7.615-4.198 0-7.346 3.461-7.346 7.615 0 4.153 3.499 7.268 7.696 7.268 1.4 0 2.799-.346 3.849-1.04m-3.849-10.382c2.1 0 3.149 1.73 3.149 2.423h-6.646c.348-.692 1.399-2.423 3.497-2.423" fill="#6c6c93"/><path d="M110.593 5.094h3.849v1.73c.7-.692 2.449-1.73 4.197-1.384v3.807c-1.748 0-3.847 0-3.847 2.422v7.615h-4.199z" fill="#6c6c93"/><path fill-rule="evenodd" clip-rule="evenodd" d="M133.679 23.438c.7-1.038 1.052-3.806 1.052-5.883V5.096h-4.549v1.385c-.7-1.385-2.099-1.731-3.849-1.731-3.499 0-6.998 2.769-6.998 7.613 0 4.5 3.149 7.27 6.998 7.27 2.449 0 3.499-1.04 3.849-1.732v.347c.333 4.288-.922 4.488-2.859 4.797l-.29.047c-.122-.12-.373-.2-.677-.295-.565-.178-1.317-.414-1.772-1.09h-4.549c.35 2.078 1.75 4.154 6.648 4.845 3.499.346 5.948-1.383 6.996-3.114m-3.497-11.075c.35 2.078-1.05 3.461-3.149 3.461-1.749 0-3.499-1.383-3.499-3.46 0-2.422 1.75-3.807 3.499-3.807s3.499 1.385 3.149 3.806" fill="#6c6c93"/></svg>