<svg data-name="Layer 1" xmlns="http://www.w3.org/2000/svg" viewBox="0 0 645.41 226.24"><g data-name="Layer 2"><g data-name="Layer 1-2" fill="#6c6c93"><path d="M530.13 166.63h-40.8v-107h40.8c29.78 0 54 24 54 53.52s-24.24 53.52-54 53.52m0-84.06h-17.6v61.07h17.6a30.54 30.54 0 0 0 1.11-61.07zm-140.63-23h81.38v23h-58.19V103H456v20.37h-43.31v20.35h58.19v23H389.5Zm-69.31 107.05h-39.57V59.58h39.57c29.8 0 54 24 54 53.54s-24.23 53.54-54 53.54m0-92h-24.33v76.89h24.33a38.45 38.45 0 1 0 1.24-76.89zm-108.87 92a54.14 54.14 0 0 1-38.2-15.66 53.21 53.21 0 0 1-.47-75.25l.47-.47a54.38 54.38 0 0 1 76.41 0 53.21 53.21 0 0 1 .47 75.25l-.47.47a54.13 54.13 0 0 1-38.21 15.65M238.75 86a39 39 0 0 0-54.86 0 38.22 38.22 0 0 0-.31 54.05l.31.31a39.07 39.07 0 0 0 54.86 0 38.17 38.17 0 0 0 .38-54l-.38-.38m-101 0a39 39 0 0 0-54.87 0 38.15 38.15 0 0 0-.41 54l.41.41a38.65 38.65 0 0 0 58.92-4.82l6.89 15.31c-.07.06-.12.13-.19.2a54.46 54.46 0 0 1-76.4 0 53.27 53.27 0 0 1-.39-75.33l.39-.39a54.38 54.38 0 0 1 76.41 0l.18.2-6.89 15.24a39 39 0 0 0-4.05-4.8"/><path d="M630.33 211.16H15.07V15.08h615.26ZM645.41 0H0v226.24h645.41Z"/></g></g></svg>